# xmcd
#
# Track frame offsets:
#	150
#	16358
#	34206
#	50406
#	66406
#	88748
#	111609
#	139866
#	161219
#	177409
#	200756
#	223649
#	236742
#	253109
#	273600
#	290245
#
# Disc length: 4087 seconds
#
# Revision: 0
# Processed by: cddbd v1.5.1PL0 Copyright (c) Steve Scherf et al.
# Submitted via: EZCDDA 4.3.3.2
#
DISCID=0e0ff510
DTITLE=Black Eyed Peas - Elephunk [Special Edition]
DYEAR=1900
DGENRE=
TTITLE0=Hands up
TTITLE1=Labor Day (it's a holiday)
TTITLE2=Let's get retarded
TTITLE3=Hey mama
TTITLE4=Shut up
TTITLE5=Smells like funk
TTITLE6=Latin girls
TTITLE7=Sexy
TTITLE8=Fly away
TTITLE9=The boogie that be
TTITLE10=Elephunk theme
TTITLE11=The Apl song
TTITLE12=Anxiety
TTITLE13=Where is the love?
TTITLE14=Third eye
TTITLE15=Lets get it started
EXTD=
EXTT0=
EXTT1=
EXTT2=
EXTT3=
EXTT4=
EXTT5=
EXTT6=
EXTT7=
EXTT8=
EXTT9=
EXTT10=
EXTT11=
EXTT12=
EXTT13=
EXTT14=
EXTT15=
PLAYORDER=
